<?xml version="1.0" encoding="UTF-8"?>
<svg version="1.1" xmlns="http://www.w3.org/2000/svg" width="225" height="225">
<path d="M0 0 C74.25 0 148.5 0 225 0 C225 74.25 225 148.5 225 225 C150.75 225 76.5 225 0 225 C0 150.75 0 76.5 0 0 Z " fill="#F2F1F0" transform="translate(0,0)"/>
<path d="M0 0 C2.97 0 5.94 0 9 0 C9.33 6.6 9.66 13.2 10 20 C11.98 18.68 13.96 17.36 16 16 C22.31988164 13.83118453 28.31644551 14.36218038 34.3125 17.1875 C39.58841875 20.08312053 42.58201935 23.51458109 45 29 C45.4140625 31.359375 45.4140625 31.359375 45.625 33.75 C45.69976562 34.54921875 45.77453125 35.3484375 45.8515625 36.171875 C45.90054688 36.77515625 45.94953125 37.3784375 46 38 C46.495 37.401875 46.99 36.80375 47.5 36.1875 C53.59136314 30.85755725 60.29242745 30.58162801 68 30.8125 C69.30517578 30.83280273 69.30517578 30.83280273 70.63671875 30.85351562 C72.75808627 30.88848322 74.87912974 30.9422747 77 31 C76.13484838 26.19955433 76.13484838 26.19955433 73.1875 22.58984375 C69.11209653 21.49094031 65.16576407 21.27643558 61 22 C59.64172029 23.64639965 58.30745749 25.31295807 57 27 C53.96030403 27.45249415 51.05108447 27.29337351 48 27 C48.07207528 23.90076276 48.23039079 21.74784648 50.51953125 19.5234375 C57.40822725 14.56357638 63.64478953 14.42178474 72 15 C75.19191491 15.7510388 77.95056821 16.75955317 81 18 C81.495 17.505 81.495 17.505 82 17 C83.68608966 16.92794489 85.37500659 16.91613932 87.0625 16.9375 C87.98160156 16.94652344 88.90070313 16.95554687 89.84765625 16.96484375 C90.55792969 16.97644531 91.26820313 16.98804687 92 17 C92.41511841 17.79265259 92.41511841 17.79265259 92.83862305 18.60131836 C94.12044195 21.0473116 95.40396316 23.49240784 96.6875 25.9375 C97.12255859 26.76830078 97.55761719 27.59910156 98.00585938 28.45507812 C98.44091797 29.28330078 98.87597656 30.11152344 99.32421875 30.96484375 C99.9133606 32.08814087 99.9133606 32.08814087 100.5144043 33.23413086 C102.63346485 37.17937933 104.82513267 41.0852388 107 45 C113.93 31.14 113.93 31.14 121 17 C123.97 17 126.94 17 130 17 C129.15674366 20.37302538 128.23359656 22.78091893 126.69921875 25.84448242 C126.22202393 26.8019487 125.7448291 27.75941498 125.25317383 28.74589539 C124.73650146 29.7720546 124.2198291 30.79821381 123.6875 31.85546875 C122.89412231 33.44153679 122.89412231 33.44153679 122.0847168 35.05964661 C120.96690037 37.29225984 119.84714092 39.52390116 118.72558594 41.75463867 C117.00254384 45.18243931 115.28594635 48.61340838 113.5703125 52.04492188 C112.4847529 54.21112692 111.39882796 56.37714893 110.3125 58.54296875 C109.79582764 59.57520065 109.27915527 60.60743256 108.74682617 61.67094421 C108.26963135 62.61895401 107.79243652 63.56696381 107.30078125 64.54370117 C106.87966064 65.38213058 106.45854004 66.22056 106.0246582 67.08439636 C105 69 105 69 104 70 C102.31391034 70.07205511 100.62499341 70.08386068 98.9375 70.0625 C97.55884766 70.04896484 97.55884766 70.04896484 96.15234375 70.03515625 C95.08693359 70.01775391 95.08693359 70.01775391 94 70 C94.79277344 68.57107422 94.79277344 68.57107422 95.6015625 67.11328125 C96.27698801 65.84685843 96.95141527 64.57990285 97.625 63.3125 C97.975625 62.68666016 98.32625 62.06082031 98.6875 61.41601562 C100.72170968 57.67915305 100.72170968 57.67915305 100.25976562 53.62304688 C98.94354638 50.88245394 97.59327923 48.17230832 96.1796875 45.48046875 C95.69741699 44.55903076 95.21514648 43.63759277 94.71826172 42.68823242 C94.10998535 41.53299072 93.50170898 40.37774902 92.875 39.1875 C90.93625 35.495625 88.9975 31.80375 87 28 C86.67 36.91 86.34 45.82 86 55 C83.36 55 80.72 55 78 55 C77.505 53.02 77.505 53.02 77 51 C75.8553125 51.9590625 75.8553125 51.9590625 74.6875 52.9375 C70.52697805 56.1304587 67.31215138 56.18450925 62.1875 56.25 C60.38345703 56.28867188 60.38345703 56.28867188 58.54296875 56.328125 C53.4118545 55.85291707 50.17552216 54.27083476 46.6875 50.5 C45 48 45 48 44 45 C43.46375 45.9075 42.9275 46.815 42.375 47.75 C39.54125179 52.01574909 35.83722919 54.38759027 31 56 C23.72943836 56.51090433 17.40700255 56.7018237 11 53 C10.34 52.34 9.68 51.68 9 51 C8.67 52.32 8.34 53.64 8 55 C5.36 55 2.72 55 0 55 C0 36.85 0 18.7 0 0 Z " fill="#F6AB1B" transform="translate(71,78)"/>
<path d="M0 0 C0.33 0 0.66 0 1 0 C1 33.33 1 66.66 1 101 C-32.33 101 -65.66 101 -100 101 C-100 100.67 -100 100.34 -100 100 C-99.030625 99.84144531 -98.06125 99.68289062 -97.0625 99.51953125 C-75.13802429 95.77841718 -56.28044811 88.30450987 -39 74 C-37.71029297 72.95585937 -37.71029297 72.95585937 -36.39453125 71.890625 C-15.30052948 53.96889946 -3.40947191 27.00660641 0 0 Z " fill="#010101" transform="translate(224,124)"/>
<path d="M0 0 C33.33 0 66.66 0 101 0 C101 33 101 66 101 100 C100.67 100 100.34 100 100 100 C99.76216797 98.52853516 99.76216797 98.52853516 99.51953125 97.02734375 C95.88201413 75.53805317 87.9337109 56.8325074 74 40 C72.95585937 38.71029297 72.95585937 38.71029297 71.890625 37.39453125 C53.96889946 16.30052948 27.00660641 4.40947191 0 1 C0 0.67 0 0.34 0 0 Z " fill="#010101" transform="translate(124,0)"/>
<path d="M0 0 C0.33 0 0.66 0 1 0 C1.15855469 0.98097656 1.31710938 1.96195312 1.48046875 2.97265625 C5.11798587 24.46194683 13.0662891 43.1674926 27 60 C27.69609375 60.85980469 28.3921875 61.71960938 29.109375 62.60546875 C46.13736966 82.64754275 73.83561875 96.86413214 100 99 C100 99.33 100 99.66 100 100 C67 100 34 100 0 100 C0 67 0 34 0 0 Z " fill="#010101" transform="translate(0,125)"/>
<path d="M0 0 C33 0 66 0 100 0 C100 0.33 100 0.66 100 1 C98.52853516 1.23783203 98.52853516 1.23783203 97.02734375 1.48046875 C75.55449586 5.1152026 56.80888242 13.05323609 40 27 C39.11699219 27.73089844 38.23398437 28.46179688 37.32421875 29.21484375 C16.97663732 46.78354456 3.82566398 73.33655371 1 100 C0.67 100 0.34 100 0 100 C0 67 0 34 0 0 Z " fill="#010101" transform="translate(0,0)"/>
<path d="M0 0 C2.97 0 5.94 0 9 0 C9.33 6.6 9.66 13.2 10 20 C11.98 18.68 13.96 17.36 16 16 C22.31988164 13.83118453 28.31644551 14.36218038 34.3125 17.1875 C39.53725912 20.05504221 42.69307211 23.50036179 45 29 C45.75162931 35.83299373 45.7222637 43.01382219 42 49 C38.15193476 53.32354456 33.6625764 55.74048306 27.9140625 56.30078125 C21.50612867 56.32361237 16.60358146 56.23762485 11 53 C10.34 52.34 9.68 51.68 9 51 C8.67 52.32 8.34 53.64 8 55 C5.36 55 2.72 55 0 55 C0 36.85 0 18.7 0 0 Z " fill="#0969B2" transform="translate(71,78)"/>
<path d="M0 0 C5.69080489 5.8488828 6.25 10.0084399 6.25 18.3125 C-5.3 18.3125 -16.85 18.3125 -28.75 18.3125 C-26.56903579 25.89612948 -26.56903579 25.89612948 -23.125 28.8125 C-18.84229366 30.71592504 -15.36537327 31.17947619 -10.75 30.3125 C-7.87970131 28.51856332 -6.25868362 27.32986724 -4.75 24.3125 C-1.78 24.3125 1.19 24.3125 4.25 24.3125 C3.95359143 27.77059994 3.28653935 29.26760879 1.0625 32 C-4.21372988 36.33823346 -9.62708083 36.67589891 -16.1875 36.6875 C-16.91259766 36.71199219 -17.63769531 36.73648438 -18.38476562 36.76171875 C-23.96144198 36.7917817 -27.14721681 35.46390306 -31.75 32.3125 C-37.44952356 26.30489409 -38.26040695 20.60355301 -38.1328125 12.546875 C-37.42016691 6.52574694 -34.54013327 3.05673241 -30.3125 -1.0625 C-20.61908685 -7.20954249 -9.42911804 -5.78604971 0 0 Z " fill="#ED3C40" transform="translate(64.75,97.6875)"/>
<path d="M0 0 C3.3 0 6.6 0 10 0 C10.66386719 1.26714844 11.32773438 2.53429687 12.01171875 3.83984375 C12.90358943 5.5390921 13.79551971 7.23830918 14.6875 8.9375 C15.12255859 9.76830078 15.55761719 10.59910156 16.00585938 11.45507812 C16.44091797 12.28330078 16.87597656 13.11152344 17.32421875 13.96484375 C17.71697998 14.7137085 18.10974121 15.46257324 18.5144043 16.23413086 C20.63346485 20.17937933 22.82513267 24.0852388 25 28 C29.62 18.76 34.24 9.52 39 0 C41.97 0 44.94 0 48 0 C47.15674366 3.37302538 46.23359656 5.78091893 44.69921875 8.84448242 C44.22202393 9.8019487 43.7448291 10.75941498 43.25317383 11.74589539 C42.73650146 12.7720546 42.2198291 13.79821381 41.6875 14.85546875 C41.15858154 15.91284744 40.62966309 16.97022614 40.0847168 18.05964661 C38.96690037 20.29225984 37.84714092 22.52390116 36.72558594 24.75463867 C35.00254384 28.18243931 33.28594635 31.61340838 31.5703125 35.04492188 C30.4847529 37.21112692 29.39882796 39.37714893 28.3125 41.54296875 C27.79582764 42.57520065 27.27915527 43.60743256 26.74682617 44.67094421 C26.26963135 45.61895401 25.79243652 46.56696381 25.30078125 47.54370117 C24.66910034 48.80134529 24.66910034 48.80134529 24.0246582 50.08439636 C23 52 23 52 22 53 C20.31391034 53.07205511 18.62499341 53.08386068 16.9375 53.0625 C16.01839844 53.05347656 15.09929687 53.04445312 14.15234375 53.03515625 C13.44207031 53.02355469 12.73179687 53.01195312 12 53 C12.52851563 52.04738281 13.05703125 51.09476563 13.6015625 50.11328125 C14.27698801 48.84685843 14.95141527 47.57990285 15.625 46.3125 C16.1509375 45.37374023 16.1509375 45.37374023 16.6875 44.41601562 C18.72184378 40.67712441 18.72184378 40.67712441 18.25976562 36.61865234 C16.95086883 33.89787191 15.59858045 31.21602419 14.1796875 28.55078125 C13.64472656 27.53822266 13.10976562 26.52566406 12.55859375 25.48242188 C11.42962422 23.35676347 10.29940116 21.23177038 9.16796875 19.10742188 C8.36939453 17.59438477 8.36939453 17.59438477 7.5546875 16.05078125 C7.06468262 15.12950439 6.57467773 14.20822754 6.06982422 13.2590332 C5 11 5 11 5 9 C4.34 9 3.68 9 3 9 C2.01 6.03 1.02 3.06 0 0 Z " fill="#6DB747" transform="translate(153,95)"/>
<path d="M0 0 C4.38299083 2.19149542 7.20074724 4.40190962 9 9 C9.7194304 14.96527706 9.50196737 19.92818519 6 25 C2.32297423 28.40124883 -0.28622563 29.83832317 -5.3125 30.3125 C-9.73267921 29.93790854 -11.62729281 28.83614013 -15 26 C-18.9138993 20.58933635 -18.78786547 15.46049685 -18 9 C-14.2424465 1.06738705 -8.41048856 -1.33499818 0 0 Z " fill="#EEEFF0" transform="translate(98,99)"/>
<path d="M0 0 C1.13598633 0.00483398 1.13598633 0.00483398 2.29492188 0.00976562 C3.47344727 0.02233398 3.47344727 0.02233398 4.67578125 0.03515625 C5.47306641 0.03966797 6.27035156 0.04417969 7.09179688 0.04882812 C9.05732382 0.06059775 11.0228121 0.07853277 12.98828125 0.09765625 C12.79621972 8.26900141 12.79621972 8.26900141 9.55078125 11.59765625 C4.62466573 14.48123606 0.66492617 14.73037491 -5.01171875 14.09765625 C-8.13671875 12.47265625 -8.13671875 12.47265625 -10.01171875 10.09765625 C-10.51171875 7.03515625 -10.51171875 7.03515625 -10.01171875 4.09765625 C-7.40969689 0.50438797 -4.24544532 -0.03192064 0 0 Z " fill="#F3F0ED" transform="translate(135.01171875,114.90234375)"/>
<path d="M0 0 C3.78777715 1.45063806 4.73876228 2.55859834 6.8125 6.0625 C8 9 8 9 8 11 C-0.58 11 -9.16 11 -18 11 C-16.91910497 5.59552487 -15.98080159 4.49533798 -12 1 C-8.30789552 -0.84605224 -4.03848091 -0.34397156 0 0 Z " fill="#F2EDED" transform="translate(54,99)"/>
</svg>
